<?xml version="1.0" encoding="utf-8"?>
<!-- Generator: Adobe Illustrator 24.2.0, SVG Export Plug-In . SVG Version: 6.00 Build 0)  -->
<svg version="1.1" id="图层_1" xmlns="http://www.w3.org/2000/svg" xmlns:xlink="http://www.w3.org/1999/xlink" x="0px" y="0px"
	 viewBox="0 0 1159.37 192.76" style="enable-background:new 0 0 1159.37 192.76;" xml:space="preserve">
<style type="text/css">
	.st0{fill:#EA4D1A;}
</style>
<g>
	<g>
		<path class="st0" d="M93.36,143.05c-4.3-0.81-8.33-1.99-12.08-3.55c-3.76-1.56-7.08-3.44-9.96-5.64l12.38-15.45
			c3.66,2.34,7.49,4.15,11.5,5.42c4,1.27,7.81,1.9,11.43,1.9c4.69,0,8.32-0.52,10.91-1.58c2.59-1.05,3.88-2.5,3.88-4.36
			c0-1.71-0.56-3-1.68-3.88c-1.12-0.88-2.56-1.5-4.32-1.87s-4.22-0.7-7.4-0.99c-0.88-0.1-1.77-0.19-2.67-0.29
			c-0.9-0.1-1.82-0.19-2.75-0.29c-0.2-0.05-0.4-0.08-0.62-0.11c-0.22-0.02-0.43-0.04-0.62-0.04c-5.67-0.73-10.21-1.64-13.62-2.71
			c-3.42-1.07-6.31-3.14-8.68-6.19c-2.37-3.05-3.55-7.48-3.55-13.29c0-5.08,1.22-9.42,3.66-13.04c2.44-3.61,5.98-6.36,10.62-8.24
			c4.64-1.88,10.25-2.82,16.85-2.82c3.86,0,7.7,0.39,11.54,1.17c3.83,0.78,7.51,1.9,11.02,3.37s6.76,3.22,9.74,5.27l-11.94,14.58
			c-3.32-1.85-6.79-3.3-10.4-4.32c-3.61-1.03-7.08-1.54-10.4-1.54c-4.05,0-7.2,0.46-9.45,1.39c-2.25,0.93-3.37,2.22-3.37,3.88
			c0,1.27,0.6,2.26,1.79,2.97c1.2,0.71,2.68,1.22,4.47,1.54c1.78,0.32,4.38,0.67,7.8,1.06c0.44,0.05,0.88,0.1,1.32,0.15
			c0.44,0.05,0.88,0.1,1.32,0.15c0.19,0.05,0.41,0.07,0.66,0.07c0.24,0,0.46,0.03,0.66,0.07c5.91,0.68,10.72,1.56,14.43,2.64
			c3.71,1.07,6.87,3.22,9.48,6.45c2.61,3.22,3.92,7.96,3.92,14.21c0,5.27-1.27,9.79-3.81,13.55c-2.54,3.76-6.25,6.63-11.13,8.61
			c-4.88,1.98-10.77,2.97-17.65,2.97C102.07,144.25,97.65,143.85,93.36,143.05z"/>
		<path class="st0" d="M168.17,140.37c-4.91-2.59-8.64-6.36-11.21-11.32c-2.56-4.96-3.85-10.92-3.85-17.91V98.77
			c0-6.88,1.28-12.78,3.85-17.69s6.3-8.64,11.21-11.21s10.83-3.85,17.76-3.85c6.93,0,12.85,1.28,17.76,3.85s8.64,6.3,11.21,11.21
			s3.85,10.8,3.85,17.69v12.6c0,6.93-1.28,12.85-3.85,17.76s-6.3,8.66-11.21,11.24c-4.91,2.59-10.83,3.88-17.76,3.88
			C179,144.25,173.08,142.96,168.17,140.37z M195.31,121.37c2.25-2.37,3.37-5.7,3.37-10v-12.6c0-4.25-1.12-7.54-3.37-9.89
			c-2.25-2.34-5.4-3.52-9.45-3.52c-4,0-7.12,1.17-9.34,3.52c-2.22,2.34-3.33,5.64-3.33,9.89v12.6c0,4.3,1.1,7.63,3.3,10
			c2.2,2.37,5.32,3.55,9.38,3.55C189.91,124.92,193.06,123.73,195.31,121.37z"/>
		<path class="st0" d="M237.06,67.13h21.53v76.03h-21.53V67.13z M276.24,86.1c-1.42-0.49-3.05-0.73-4.91-0.73
			c-4.05,0-7.19,1.31-9.41,3.92c-2.22,2.61-3.33,6.24-3.33,10.88l-1.54-19.78c2.1-4.54,4.82-8.07,8.17-10.58
			c3.34-2.51,7.02-3.77,11.02-3.77c3.17,0,6.04,0.5,8.61,1.5c2.56,1,4.8,2.48,6.7,4.43L279.83,88.3
			C278.85,87.32,277.66,86.59,276.24,86.1z"/>
		<path class="st0" d="M303.45,138.43c-4.03-3.88-6.04-9.78-6.04-17.69c0-7.52,2.26-13.16,6.77-16.92
			c4.52-3.76,11.29-5.64,20.32-5.64h19.04l1.03,15.31h-20c-3.03,0-5.3,0.6-6.81,1.79c-1.51,1.2-2.27,3.02-2.27,5.46
			c0,2.49,0.95,4.33,2.86,5.53c1.9,1.2,4.78,1.79,8.64,1.79c5.37,0,9.36-0.61,11.98-1.83c2.61-1.22,3.92-3.12,3.92-5.71l1.54,11.06
			c-0.29,2.74-1.55,5.05-3.77,6.96c-2.22,1.9-5.01,3.33-8.35,4.28c-3.35,0.95-6.87,1.43-10.58,1.43
			C313.57,144.25,307.48,142.31,303.45,138.43z M342.89,94.96c0-3.52-1.17-6.23-3.52-8.13s-5.67-2.86-9.96-2.86
			c-2.83,0-5.64,0.46-8.42,1.39c-2.78,0.93-5.25,2.22-7.4,3.88l-12.45-12.23c3.03-3.47,7.03-6.16,12.01-8.09
			c4.98-1.93,10.5-2.89,16.55-2.89c6.64,0,12.3,1.11,16.99,3.33c4.69,2.22,8.26,5.45,10.73,9.67c2.46,4.22,3.7,9.31,3.7,15.27v48.85
			h-18.24V94.96z"/>
		<path class="st0" d="M374.31,67.13h19.26l13.48,46.95l16.04-46.95h11.87L451,114.08l13.48-46.95h19.26l-23.44,76.03h-14.94
			l-16.33-49.58l-16.33,49.58h-14.94L374.31,67.13z"/>
		<path class="st0" d="M495.82,36.66h20.07v20.07h-20.07V36.66z M495.82,67.13h20.07v76.03h-20.07V67.13z"/>
		<path class="st0" d="M528.71,67.13h37.21v17.14h-37.21V67.13z M541.2,138.43c-3.1-3.39-4.65-8.41-4.65-15.05V45.01h20.07v73.39
			c0,1.86,0.37,3.28,1.1,4.28c0.73,1,1.81,1.5,3.22,1.5h4.98v19.34h-10.11C549.17,143.52,544.3,141.83,541.2,138.43z"/>
		<path class="st0" d="M583.49,36.66h20.07v106.49h-20.07V36.66z M627.44,97.09c0-3.71-1.06-6.59-3.19-8.64
			c-2.13-2.05-5.14-3.08-9.05-3.08c-3.71,0-6.58,1.04-8.61,3.11c-2.03,2.08-3.04,4.99-3.04,8.75l-1.54-16.85
			c2.29-4.78,5.04-8.37,8.24-10.77c3.2-2.39,7.21-3.59,12.05-3.59c8.01,0,14.21,2.7,18.6,8.09c4.39,5.4,6.59,13.03,6.59,22.89v46.14
			h-20.07V97.09z"/>
		<path class="st0" d="M710.57,67.13h20L702,143.16h-14.21l-28.56-76.03h20l15.67,47.68L710.57,67.13z"/>
		<path class="st0" d="M741.18,36.66h20.07v20.07h-20.07V36.66z M741.18,67.13h20.07v76.03h-20.07V67.13z"/>
		<path class="st0" d="M789.49,140.37c-3.83-2.59-6.75-6.34-8.75-11.24c-2-4.91-3-10.83-3-17.76V99.21c0-6.98,1-12.96,3-17.94
			c2-4.98,4.92-8.76,8.75-11.35c3.83-2.59,8.43-3.88,13.81-3.88c4.05,0,7.75,1.21,11.1,3.63c3.34,2.42,6.04,5.85,8.09,10.29
			l-1.54,16.85c0-2.59-0.44-4.78-1.32-6.59c-0.88-1.81-2.16-3.19-3.85-4.14c-1.68-0.95-3.72-1.43-6.12-1.43
			c-3.76,0-6.68,1.28-8.75,3.85c-2.08,2.56-3.11,6.17-3.11,10.8v12.08c0,4.54,1.04,8.06,3.11,10.55c2.07,2.49,4.99,3.74,8.75,3.74
			c2.39,0,4.43-0.46,6.12-1.39c1.69-0.93,2.97-2.27,3.85-4.03s1.32-3.88,1.32-6.37l1.03,17.36c-1.56,4.15-3.96,7.36-7.18,9.63
			c-3.22,2.27-7.06,3.41-11.5,3.41C797.92,144.25,793.32,142.96,789.49,140.37z M820.94,36.66h20.07v106.49h-20.07V36.66z"/>
		<path class="st0" d="M874.59,140.26c-5.2-2.66-9.17-6.54-11.9-11.65c-2.74-5.1-4.1-11.24-4.1-18.42v-8.57
			c0-7.52,1.31-13.94,3.92-19.26c2.61-5.32,6.42-9.38,11.43-12.16s11.05-4.17,18.13-4.17c6.64,0,12.33,1.66,17.07,4.98
			c4.74,3.32,8.34,8.14,10.8,14.47c2.47,6.32,3.7,13.95,3.7,22.89v4.98h-52V99.8h33.69l-0.22-1.76c-0.54-4.39-1.92-7.79-4.14-10.18
			c-2.22-2.39-5.19-3.59-8.9-3.59c-4.83,0-8.58,1.44-11.24,4.32c-2.66,2.88-3.99,6.96-3.99,12.23v9.67c0,5.18,1.45,9.18,4.36,12.01
			c2.9,2.83,6.97,4.25,12.19,4.25c2.68,0,5.35-0.48,7.98-1.43s5.03-2.31,7.18-4.06l13.11,11.65c-3.96,3.61-8.4,6.41-13.33,8.39
			c-4.93,1.98-9.91,2.97-14.94,2.97C886.06,144.25,879.79,142.92,874.59,140.26z"/>
		<path class="st0" d="M954.06,140.37c-4.91-2.59-8.64-6.36-11.21-11.32c-2.56-4.96-3.85-10.92-3.85-17.91V98.77
			c0-6.88,1.28-12.78,3.85-17.69c2.56-4.91,6.3-8.64,11.21-11.21c4.91-2.56,10.83-3.85,17.76-3.85c6.93,0,12.85,1.28,17.76,3.85
			c4.91,2.56,8.64,6.3,11.21,11.21c2.56,4.91,3.85,10.8,3.85,17.69v12.6c0,6.93-1.28,12.85-3.85,17.76
			c-2.56,4.91-6.3,8.66-11.21,11.24c-4.91,2.59-10.83,3.88-17.76,3.88C964.89,144.25,958.97,142.96,954.06,140.37z M981.2,121.37
			c2.25-2.37,3.37-5.7,3.37-10v-12.6c0-4.25-1.12-7.54-3.37-9.89c-2.25-2.34-5.4-3.52-9.45-3.52c-4,0-7.12,1.17-9.34,3.52
			s-3.33,5.64-3.33,9.89v12.6c0,4.3,1.1,7.63,3.3,10c2.2,2.37,5.32,3.55,9.38,3.55C975.8,124.92,978.95,123.73,981.2,121.37z"/>
		<path class="st0" d="M1038.77,143.05c-4.3-0.81-8.33-1.99-12.08-3.55c-3.76-1.56-7.08-3.44-9.96-5.64l12.38-15.45
			c3.66,2.34,7.5,4.15,11.5,5.42c4,1.27,7.81,1.9,11.43,1.9c4.69,0,8.32-0.52,10.91-1.58c2.59-1.05,3.88-2.5,3.88-4.36
			c0-1.71-0.56-3-1.68-3.88c-1.12-0.88-2.56-1.5-4.32-1.87s-4.22-0.7-7.4-0.99c-0.88-0.1-1.77-0.19-2.67-0.29
			c-0.9-0.1-1.82-0.19-2.75-0.29c-0.2-0.05-0.4-0.08-0.62-0.11c-0.22-0.02-0.43-0.04-0.62-0.04c-5.67-0.73-10.21-1.64-13.62-2.71
			c-3.42-1.07-6.31-3.14-8.68-6.19c-2.37-3.05-3.55-7.48-3.55-13.29c0-5.08,1.22-9.42,3.66-13.04c2.44-3.61,5.98-6.36,10.62-8.24
			c4.64-1.88,10.25-2.82,16.85-2.82c3.86,0,7.7,0.39,11.54,1.17c3.83,0.78,7.51,1.9,11.02,3.37s6.76,3.22,9.74,5.27l-11.94,14.58
			c-3.32-1.85-6.79-3.3-10.4-4.32c-3.61-1.03-7.08-1.54-10.4-1.54c-4.05,0-7.2,0.46-9.45,1.39c-2.25,0.93-3.37,2.22-3.37,3.88
			c0,1.27,0.6,2.26,1.79,2.97c1.2,0.71,2.68,1.22,4.47,1.54c1.78,0.32,4.38,0.67,7.8,1.06c0.44,0.05,0.88,0.1,1.32,0.15
			c0.44,0.05,0.88,0.1,1.32,0.15c0.19,0.05,0.41,0.07,0.66,0.07c0.24,0,0.46,0.03,0.66,0.07c5.91,0.68,10.72,1.56,14.43,2.64
			c3.71,1.07,6.87,3.22,9.49,6.45c2.61,3.22,3.92,7.96,3.92,14.21c0,5.27-1.27,9.79-3.81,13.55c-2.54,3.76-6.25,6.63-11.13,8.61
			c-4.88,1.98-10.77,2.97-17.65,2.97C1047.48,144.25,1043.06,143.85,1038.77,143.05z"/>
	</g>
</g>
</svg>
